<svg width="151" height="151" viewBox="0 0 151 151" fill="none" xmlns="http://www.w3.org/2000/svg">
<g id="Frame 1">
<path id="oval-2" opacity="0.0713123" d="M45.0924 71.4106C54.4993 71.4106 62.1251 63.6556 62.1251 54.0892C62.1251 44.5228 54.4993 36.7678 45.0924 36.7678C35.6855 36.7678 28.0597 44.5228 28.0597 54.0892C28.0597 63.6556 35.6855 71.4106 45.0924 71.4106Z" fill="#3366FF"/>
<g id="folha-2">
<path id="Fill 1" fill-rule="evenodd" clip-rule="evenodd" d="M76.2014 55.0249L85.7836 104.198C86.4245 107.487 84.288 110.668 81.0112 111.304L37.0947 119.819C33.8179 120.454 30.6419 118.303 30.001 115.014L19.2292 59.7365C18.5883 56.4475 20.7252 53.2663 24.002 52.631L61.7147 45.3187L76.2014 55.0249Z" fill="url(#paint0_linear)"/>
<path id="Fill 3" fill-rule="evenodd" clip-rule="evenodd" d="M71.53 69.9282L29.9675 77.9931C29.6962 78.0457 29.415 77.7749 29.3397 77.3878C29.2643 77.0008 29.4234 76.6445 29.6947 76.5919L71.2572 68.527C71.5287 68.4743 71.8097 68.7452 71.8851 69.1322C71.9604 69.5192 71.8015 69.8755 71.53 69.9282Z" fill="white"/>
<path id="Fill 5" fill-rule="evenodd" clip-rule="evenodd" d="M72.5565 75.7163L30.994 83.7812C30.7227 83.8338 30.4415 83.563 30.3662 83.176C30.2908 82.789 30.4499 82.4327 30.7212 82.38L72.2837 74.3151C72.5552 74.2624 72.8362 74.5333 72.9116 74.9203C72.9869 75.3073 72.828 75.6636 72.5565 75.7163Z" fill="white"/>
<path id="Fill 7" fill-rule="evenodd" clip-rule="evenodd" d="M73.5828 81.5044L32.0203 89.5693C31.749 89.6219 31.4678 89.3511 31.3925 88.9641C31.3171 88.5771 31.4762 88.2208 31.7475 88.1681L73.31 80.1032C73.5815 80.0506 73.8625 80.3215 73.9379 80.7085C74.0132 81.0955 73.8543 81.4517 73.5828 81.5044Z" fill="white"/>
<path id="Fill 9" fill-rule="evenodd" clip-rule="evenodd" d="M57.5897 90.5385L33.4665 95.2189C33.1943 95.2717 32.9128 95.0009 32.8374 94.614C32.762 94.227 32.9215 93.8707 33.1937 93.8179L57.3169 89.1374C57.5891 89.0846 57.8706 89.3554 57.946 89.7424C58.0214 90.1293 57.8619 90.4857 57.5897 90.5385Z" fill="white"/>
<g id="Group 13">
<mask id="mask0" mask-type="alpha" maskUnits="userSpaceOnUse" x="60" y="42" width="16" height="16">
<g id="mask 3">
<path id="Vector" d="M60.7245 45.1361L73.2731 42.7054L75.7311 55.3065L63.1825 57.7373L60.7245 45.1361Z" fill="white"/>
</g>
</mask>
<g mask="url(#mask0)">
<path id="Fill 11" fill-rule="evenodd" clip-rule="evenodd" d="M61.1354 45.0576L60.852 45.1126C60.7816 45.1262 60.7356 45.1941 60.7493 45.2644L62.7647 55.6006C62.9948 56.7806 64.1403 57.5514 65.3233 57.3222L75.6036 55.3301C75.674 55.3165 75.72 55.2484 75.7063 55.1782L75.6245 54.7588L61.1354 45.0576Z" fill="url(#paint1_linear)"/>
</g>
</g>
</g>
<path id="oval-1" opacity="0.114653" d="M71.7103 108.73C84.2528 108.73 94.4206 98.5776 94.4206 86.0544C94.4206 73.5311 84.2528 63.3791 71.7103 63.3791C59.1677 63.3791 49 73.5311 49 86.0544C49 98.5776 59.1677 108.73 71.7103 108.73Z" fill="#3366FF"/>
<g id="folha-1">
<g id="Group 133">
<g id="Group 16">
<path id="Fill 1_2" fill-rule="evenodd" clip-rule="evenodd" d="M87.3206 45.1345L94.9966 103.596C95.51 107.506 92.7406 111.097 88.8105 111.615L36.1381 118.566C32.208 119.085 28.6057 116.336 28.0923 112.425L19.4633 46.7062C18.9499 42.7961 21.7198 39.2058 25.6499 38.6872L70.8816 32.7181L87.3206 45.1345Z" fill="url(#paint2_linear)"/>
<path id="Fill 3_2" fill-rule="evenodd" clip-rule="evenodd" d="M75.0958 56.9137L28.9909 62.993C28.69 63.0327 28.4041 62.7482 28.3528 62.3573C28.3014 61.9664 28.504 61.6175 28.8049 61.5778L74.9098 55.4984C75.2109 55.4587 75.4966 55.7433 75.5479 56.1342C75.5993 56.5251 75.3969 56.874 75.0958 56.9137Z" fill="white"/>
<path id="Fill 5_2" fill-rule="evenodd" clip-rule="evenodd" d="M76.0247 63.9814L29.9198 70.0608C29.6189 70.1004 29.3331 69.8159 29.2817 69.425C29.2303 69.0341 29.4329 68.6852 29.7339 68.6455L75.8388 62.5662C76.1399 62.5264 76.4255 62.811 76.4769 63.2019C76.5283 63.5928 76.3259 63.9417 76.0247 63.9814Z" fill="white"/>
<path id="Fill 7_2" fill-rule="evenodd" clip-rule="evenodd" d="M76.9537 71.0491L30.8488 77.1285C30.5479 77.1681 30.2621 76.8836 30.2107 76.4927C30.1593 76.1018 30.3619 75.7529 30.6629 75.7132L76.7678 69.6339C77.0689 69.5942 77.3545 69.8787 77.4059 70.2696C77.4573 70.6605 77.2549 71.0094 76.9537 71.0491Z" fill="white"/>
<path id="Fill 9_2" fill-rule="evenodd" clip-rule="evenodd" d="M58.1652 80.7162L31.7717 84.1969C31.4739 84.2362 31.191 83.9513 31.1397 83.5604C31.0883 83.1696 31.288 82.8211 31.5857 82.7818L57.9792 79.3011C58.277 79.2619 58.5599 79.5467 58.6113 79.9376C58.6626 80.3284 58.4629 80.6769 58.1652 80.7162Z" fill="white"/>
</g>
</g>
<g id="Group 13_2">
<g id="Fill 11 Copy" opacity="0.2756" filter="url(#filter0_f)">
<path fill-rule="evenodd" clip-rule="evenodd" d="M70.3317 33.6404L69.9832 33.6862C69.8966 33.6976 69.8353 33.7737 69.8462 33.8566L71.4532 46.034C71.6367 47.4242 72.9647 48.3964 74.4196 48.2053L87.0623 46.5449C87.1489 46.5335 87.2101 46.4571 87.1993 46.3745L87.1341 45.8804L70.3317 33.6404Z" fill="url(#paint3_linear)"/>
</g>
<mask id="mask1" mask-type="alpha" maskUnits="userSpaceOnUse" x="70" y="30" width="18" height="18">
<g id="mask 10">
<path id="Vector_2" d="M70.4175 32.6461L85.942 30.8701L87.6299 45.75L72.1054 47.5261L70.4175 32.6461Z" fill="white"/>
</g>
</mask>
<g mask="url(#mask1)">
<path id="Fill 11_2" fill-rule="evenodd" clip-rule="evenodd" d="M70.9239 32.5885L70.5733 32.6286C70.4862 32.6385 70.4232 32.7137 70.4326 32.7967L71.8184 45.0013C71.9766 46.3946 73.2913 47.3885 74.755 47.2212L87.4741 45.7676C87.5612 45.7576 87.6242 45.6822 87.6148 45.5994L87.5585 45.1041L70.9239 32.5885Z" fill="url(#paint4_linear)"/>
</g>
</g>
</g>
</g>
<defs>
<filter id="filter0_f" x="67.845" y="31.6404" width="21.3556" height="18.5888" filterUnits="userSpaceOnUse" color-interpolation-filters="sRGB">
<feFlood flood-opacity="0" result="BackgroundImageFix"/>
<feBlend mode="normal" in="SourceGraphic" in2="BackgroundImageFix" result="shape"/>
<feGaussianBlur stdDeviation="1" result="effect1_foregroundBlur"/>
</filter>
<linearGradient id="paint0_linear" x1="61.6368" y1="97.8081" x2="32.9926" y2="119.205" gradientUnits="userSpaceOnUse">
<stop stop-color="#B0C2F9"/>
<stop offset="0.587317" stop-color="#C3D2FF"/>
<stop offset="1" stop-color="#D6E0FF"/>
</linearGradient>
<linearGradient id="paint1_linear" x1="69.565" y1="60.7106" x2="67.5576" y2="50.3512" gradientUnits="userSpaceOnUse">
<stop stop-color="#2854D8"/>
<stop offset="1" stop-color="#3366FF"/>
</linearGradient>
<linearGradient id="paint2_linear" x1="72.4405" y1="37.1827" x2="26.9188" y2="113.108" gradientUnits="userSpaceOnUse">
<stop stop-color="#BDCEFF"/>
<stop offset="1" stop-color="#D6E0FF"/>
</linearGradient>
<linearGradient id="paint3_linear" x1="79.2864" y1="52.4375" x2="77.6748" y2="40.2275" gradientUnits="userSpaceOnUse">
<stop stop-color="#2854D8"/>
<stop offset="1" stop-color="#3366FF"/>
</linearGradient>
<linearGradient id="paint4_linear" x1="79.5681" y1="51.5237" x2="78.1706" y2="39.2956" gradientUnits="userSpaceOnUse">
<stop stop-color="#2854D8"/>
<stop offset="1" stop-color="#3366FF"/>
</linearGradient>
</defs>
</svg>
