<svg width="151" height="151" viewBox="0 0 151 151" fill="none" xmlns="http://www.w3.org/2000/svg">
<g id="Frame 3">
<path id="oval-2" opacity="0.0713123" d="M45.0924 71.4106C54.4993 71.4106 62.1251 63.6556 62.1251 54.0892C62.1251 44.5228 54.4993 36.7678 45.0924 36.7678C35.6855 36.7678 28.0597 44.5228 28.0597 54.0892C28.0597 63.6556 35.6855 71.4106 45.0924 71.4106Z" fill="#3366FF"/>
<g id="folha-2">
<path id="Fill 1" fill-rule="evenodd" clip-rule="evenodd" d="M76.2014 55.0249L85.7836 104.198C86.4245 107.487 84.288 110.668 81.0112 111.304L37.0947 119.819C33.818 120.454 30.6419 118.303 30.001 115.014L19.2292 59.7365C18.5883 56.4475 20.7253 53.2663 24.002 52.631L61.7147 45.3187L76.2014 55.0249Z" fill="url(#paint0_linear)"/>
<path id="Fill 3" fill-rule="evenodd" clip-rule="evenodd" d="M71.53 69.9282L29.9675 77.9931C29.6962 78.0457 29.415 77.7749 29.3397 77.3878C29.2643 77.0008 29.4234 76.6445 29.6947 76.5919L71.2572 68.527C71.5287 68.4743 71.8097 68.7452 71.8851 69.1322C71.9604 69.5192 71.8015 69.8755 71.53 69.9282Z" fill="white"/>
<path id="Fill 5" fill-rule="evenodd" clip-rule="evenodd" d="M72.5565 75.7163L30.994 83.7812C30.7227 83.8338 30.4415 83.563 30.3661 83.176C30.2908 82.789 30.4499 82.4327 30.7212 82.38L72.2837 74.3151C72.5552 74.2624 72.8362 74.5333 72.9116 74.9203C72.9869 75.3073 72.828 75.6636 72.5565 75.7163Z" fill="white"/>
<path id="Fill 7" fill-rule="evenodd" clip-rule="evenodd" d="M73.5828 81.5044L32.0203 89.5693C31.749 89.6219 31.4678 89.3511 31.3925 88.9641C31.3171 88.5771 31.4762 88.2208 31.7475 88.1681L73.31 80.1032C73.5815 80.0506 73.8625 80.3215 73.9379 80.7085C74.0132 81.0955 73.8543 81.4517 73.5828 81.5044Z" fill="white"/>
<path id="Fill 9" fill-rule="evenodd" clip-rule="evenodd" d="M57.5897 90.5385L33.4665 95.2189C33.1943 95.2717 32.9127 95.0009 32.8374 94.614C32.762 94.227 32.9215 93.8707 33.1937 93.8179L57.3169 89.1374C57.5891 89.0846 57.8706 89.3554 57.946 89.7424C58.0213 90.1293 57.8619 90.4857 57.5897 90.5385Z" fill="white"/>
<g id="Group 13">
<mask id="mask0" mask-type="alpha" maskUnits="userSpaceOnUse" x="60" y="42" width="16" height="16">
<g id="mask 3">
<path id="Vector" d="M60.7246 45.1361L73.2731 42.7054L75.7311 55.3065L63.1825 57.7373L60.7246 45.1361Z" fill="white"/>
</g>
</mask>
<g mask="url(#mask0)">
<path id="Fill 11" fill-rule="evenodd" clip-rule="evenodd" d="M61.1354 45.0576L60.852 45.1126C60.7816 45.1262 60.7356 45.1941 60.7494 45.2644L62.7648 55.6006C62.9948 56.7806 64.1403 57.5514 65.3234 57.3222L75.6036 55.3301C75.674 55.3165 75.72 55.2484 75.7063 55.1782L75.6245 54.7588L61.1354 45.0576Z" fill="url(#paint1_linear)"/>
</g>
</g>
</g>
<path id="oval-1" opacity="0.114653" d="M111.349 108.73C123.892 108.73 134.06 98.5776 134.06 86.0544C134.06 73.5311 123.892 63.3791 111.349 63.3791C98.8069 63.3791 88.6391 73.5311 88.6391 86.0544C88.6391 98.5776 98.8069 108.73 111.349 108.73Z" fill="#3366FF"/>
<g id="folha-1">
<g id="Group 133">
<g id="Group 16">
<path id="Fill 1_2" fill-rule="evenodd" clip-rule="evenodd" d="M117.159 53.5653L109.954 112.087C109.472 116.001 105.892 118.783 101.957 118.302L49.2221 111.844C45.2873 111.362 42.4881 107.799 42.97 103.884L51.0694 38.098C51.5513 34.1838 55.1319 31.4014 59.0666 31.8832L104.352 37.4286L117.159 53.5653Z" fill="url(#paint2_linear)"/>
<path id="Fill 3_2" fill-rule="evenodd" clip-rule="evenodd" d="M102.375 61.9087L56.2159 56.2515C55.9147 56.2145 55.7092 55.8675 55.7573 55.4762C55.8054 55.0849 56.0889 54.7978 56.3902 54.8347L102.549 60.4919C102.85 60.5289 103.056 60.8759 103.007 61.2672C102.959 61.6585 102.676 61.9456 102.375 61.9087Z" fill="white"/>
<path id="Fill 5_2" fill-rule="evenodd" clip-rule="evenodd" d="M101.504 68.9839L55.3458 63.3266C55.0445 63.2897 54.839 62.9427 54.8872 62.5514C54.9353 62.1601 55.2188 61.873 55.5201 61.9099L101.679 67.5671C101.98 67.6041 102.185 67.9511 102.137 68.3424C102.089 68.7337 101.806 69.0208 101.504 68.9839Z" fill="white"/>
<path id="Fill 7_2" fill-rule="evenodd" clip-rule="evenodd" d="M100.634 76.0591L54.4757 70.4018C54.1744 70.3649 53.9689 70.0179 54.0171 69.6266C54.0652 69.2353 54.3487 68.9482 54.65 68.9851L100.809 74.6423C101.11 74.6793 101.315 75.0263 101.267 75.4176C101.219 75.8089 100.936 76.096 100.634 76.0591Z" fill="white"/>
<path id="Fill 9_2" fill-rule="evenodd" clip-rule="evenodd" d="M80.0238 80.7143L53.5995 77.4762C53.3014 77.4397 53.0988 77.093 53.1469 76.7018C53.1951 76.3105 53.4756 76.0231 53.7737 76.0597L80.1981 79.2978C80.4962 79.3343 80.6988 79.6809 80.6507 80.0722C80.6025 80.4634 80.322 80.7508 80.0238 80.7143Z" fill="white"/>
</g>
</g>
<g id="Group 13_2">
<g id="Fill 11 Copy" opacity="0.2756" filter="url(#filter0_f)">
<path fill-rule="evenodd" clip-rule="evenodd" d="M103.589 38.1838L103.24 38.1409C103.153 38.1303 103.075 38.1886 103.065 38.2716L101.572 50.4635C101.401 51.8553 102.444 53.129 103.9 53.3083L116.556 54.8661C116.643 54.8767 116.721 54.8181 116.731 54.7354L116.792 54.2407L103.589 38.1838Z" fill="url(#paint3_linear)"/>
</g>
<mask id="mask1" mask-type="alpha" maskUnits="userSpaceOnUse" x="101" y="37" width="19" height="18">
<g id="mask 10">
<path id="Vector_2" d="M103.921 37.2427L119.396 39.41L117.304 54.2386L101.83 52.0713L103.921 37.2427Z" fill="white"/>
</g>
</mask>
<g mask="url(#mask1)">
<path id="Fill 11_2" fill-rule="evenodd" clip-rule="evenodd" d="M104.426 37.3137L104.076 37.2647C103.989 37.2525 103.909 37.3096 103.898 37.3923L102.184 49.5551C101.988 50.9436 103.012 52.235 104.471 52.4395L117.149 54.2166C117.236 54.2288 117.316 54.1715 117.327 54.089L117.397 53.5954L104.426 37.3137Z" fill="url(#paint4_linear)"/>
</g>
</g>
</g>
<g id="xis">
<rect id="Rectangle" width="22.8423" height="23.2155" rx="8" transform="matrix(-0.994019 -0.109205 -0.109205 0.994019 115.198 89.2859)" fill="#FF6666"/>
<g id="Group 2">
<g id="icon/UI/check">
<path id="Fill 1_3" fill-rule="evenodd" clip-rule="evenodd" d="M103.933 99.8885L107.188 103.947C107.484 104.316 107.425 104.855 107.056 105.151C106.871 105.299 106.644 105.358 106.426 105.334C106.208 105.31 105.999 105.203 105.851 105.019L102.597 100.961L98.5386 104.215C98.3542 104.363 98.127 104.423 97.909 104.399C97.691 104.375 97.4821 104.267 97.3343 104.083C97.0378 103.713 97.0971 103.174 97.4667 102.878L101.525 99.6239L98.27 95.5658C97.9734 95.1971 98.0327 94.658 98.4023 94.3615C98.7719 94.0651 99.3101 94.1242 99.6066 94.4938L102.861 98.5519L106.919 95.2972C107.289 95.0016 107.827 95.0608 108.124 95.4295C108.42 95.7991 108.361 96.3383 107.991 96.6347L103.933 99.8885Z" fill="white"/>
</g>
</g>
</g>
</g>
<defs>
<filter id="filter0_f" x="99.5536" y="36.1396" width="19.2382" height="20.7277" filterUnits="userSpaceOnUse" color-interpolation-filters="sRGB">
<feFlood flood-opacity="0" result="BackgroundImageFix"/>
<feBlend mode="normal" in="SourceGraphic" in2="BackgroundImageFix" result="shape"/>
<feGaussianBlur stdDeviation="1" result="effect1_foregroundBlur"/>
</filter>
<linearGradient id="paint0_linear" x1="61.6368" y1="97.8081" x2="32.9926" y2="119.205" gradientUnits="userSpaceOnUse">
<stop stop-color="#B0C2F9"/>
<stop offset="0.587317" stop-color="#C3D2FF"/>
<stop offset="1" stop-color="#D6E0FF"/>
</linearGradient>
<linearGradient id="paint1_linear" x1="69.565" y1="60.7106" x2="67.5576" y2="50.3512" gradientUnits="userSpaceOnUse">
<stop stop-color="#2854D8"/>
<stop offset="1" stop-color="#3366FF"/>
</linearGradient>
<linearGradient id="paint2_linear" x1="104.744" y1="42.1413" x2="41.6629" y2="104.252" gradientUnits="userSpaceOnUse">
<stop stop-color="#BDCEFF"/>
<stop offset="1" stop-color="#D6E0FF"/>
</linearGradient>
<linearGradient id="paint3_linear" x1="107.552" y1="58.6241" x2="109.049" y2="46.3995" gradientUnits="userSpaceOnUse">
<stop stop-color="#2854D8"/>
<stop offset="1" stop-color="#3366FF"/>
</linearGradient>
<linearGradient id="paint4_linear" x1="108.054" y1="57.81" x2="109.762" y2="45.6215" gradientUnits="userSpaceOnUse">
<stop stop-color="#2854D8"/>
<stop offset="1" stop-color="#3366FF"/>
</linearGradient>
</defs>
</svg>
