<svg width="135" height="97" viewBox="0 0 135 97" fill="none" xmlns="http://www.w3.org/2000/svg">
<g id="recusa-documento">
<path id="Oval2" opacity="0.0713123" d="M17.0327 57.7407C26.4396 57.7407 34.0654 49.9857 34.0654 40.4193C34.0654 30.8529 26.4396 23.0979 17.0327 23.0979C7.6258 23.0979 0 30.8529 0 40.4193C0 49.9857 7.6258 57.7407 17.0327 57.7407Z" fill="#3366FF"/>
<path id="Oval1" opacity="0.114653" d="M112.29 83.5654C124.832 83.5654 135 73.4133 135 60.8901C135 48.3668 124.832 38.2147 112.29 38.2147C99.7472 38.2147 89.5794 48.3668 89.5794 60.8901C89.5794 73.4133 99.7472 83.5654 112.29 83.5654Z" fill="#3366FF"/>
<g id="Folha2">
<path id="Fill 1" fill-rule="evenodd" clip-rule="evenodd" d="M77.1417 29.8606L86.7239 79.034C87.3648 82.3229 85.2283 85.5041 81.9515 86.1394L38.035 94.6546C34.7583 95.29 31.5822 93.1389 30.9413 89.85L20.1695 34.5722C19.5286 31.2832 21.6655 28.102 24.9423 27.4666L62.655 20.1543L77.1417 29.8606Z" fill="url(#paint0_linear)"/>
<path id="Fill 3" fill-rule="evenodd" clip-rule="evenodd" d="M72.4703 44.7639L30.9078 52.8288C30.6365 52.8814 30.3553 52.6105 30.28 52.2235C30.2046 51.8365 30.3637 51.4802 30.635 51.4276L72.1975 43.3627C72.469 43.31 72.75 43.5809 72.8254 43.9679C72.9007 44.3549 72.7418 44.7112 72.4703 44.7639Z" fill="white"/>
<path id="Fill 5" fill-rule="evenodd" clip-rule="evenodd" d="M73.4969 50.552L31.9343 58.6169C31.663 58.6695 31.3818 58.3987 31.3065 58.0117C31.2311 57.6247 31.3902 57.2683 31.6615 57.2157L73.224 49.1508C73.4955 49.0981 73.7765 49.369 73.8519 49.756C73.9272 50.143 73.7683 50.4993 73.4969 50.552Z" fill="white"/>
<path id="Fill 7" fill-rule="evenodd" clip-rule="evenodd" d="M74.5231 56.3401L32.9606 64.405C32.6893 64.4576 32.4081 64.1868 32.3328 63.7998C32.2574 63.4128 32.4165 63.0564 32.6878 63.0038L74.2503 54.9389C74.5218 54.8862 74.8028 55.1571 74.8782 55.5441C74.9535 55.9311 74.7946 56.2874 74.5231 56.3401Z" fill="white"/>
<path id="Fill 9" fill-rule="evenodd" clip-rule="evenodd" d="M58.53 65.3742L34.4068 70.0546C34.1346 70.1074 33.8531 69.8366 33.7777 69.4497C33.7023 69.0627 33.8618 68.7064 34.134 68.6536L58.2572 63.9731C58.5294 63.9203 58.8109 64.1911 58.8863 64.5781C58.9617 64.965 58.8022 65.3213 58.53 65.3742Z" fill="white"/>
<g id="Group 13">
<mask id="mask0" mask-type="alpha" maskUnits="userSpaceOnUse" x="61" y="17" width="16" height="16">
<g id="mask 3">
<path id="Vector" d="M61.6649 19.9718L74.2135 17.5411L76.6714 30.1422L64.1228 32.5729L61.6649 19.9718Z" fill="white"/>
</g>
</mask>
<g mask="url(#mask0)">
<path id="Fill 11" fill-rule="evenodd" clip-rule="evenodd" d="M62.0758 19.8933L61.7924 19.9483C61.722 19.9619 61.676 20.0298 61.6897 20.1001L63.7051 30.4363C63.9352 31.6163 65.0806 32.3871 66.2637 32.1579L76.5439 30.1658C76.6143 30.1522 76.6603 30.084 76.6466 30.0139L76.5648 29.5945L62.0758 19.8933Z" fill="url(#paint1_linear)"/>
</g>
</g>
<path id="Rectangle Copy" fill-rule="evenodd" clip-rule="evenodd" d="M48.3756 17.4975L18.3694 23.3491C16.9179 23.6321 15.7183 24.4752 14.9518 25.6098C14.1853 26.7445 13.8518 28.1709 14.1327 29.6206L24.8575 84.9742C25.1413 86.4247 25.9873 87.6234 27.1257 88.3886C28.264 89.1538 29.6948 89.4854 31.148 89.202L61.1543 83.3504C62.6057 83.0674 63.8053 82.2243 64.5718 81.0896C65.3384 79.9549 65.6718 78.5286 65.3909 77.0789L54.6661 21.7253C54.3824 20.2748 53.5364 19.076 52.398 18.3109C51.2596 17.5457 49.8289 17.2141 48.3756 17.4975Z" stroke="#333333"/>
</g>
<g id="Folha1">
<path id="Rectangle" fill-rule="evenodd" clip-rule="evenodd" d="M53.9027 0.652055C52.4333 0.47277 51.0299 0.905248 49.949 1.74944C48.8681 2.59363 48.1097 3.84953 47.9301 5.31705L39.5226 74.0128C39.3432 75.4791 39.7755 76.8795 40.6198 77.9584C41.464 79.0374 42.7203 79.795 44.1886 79.9758L96.396 86.4069C97.8656 86.5862 99.269 86.1537 100.35 85.3095C101.431 84.4654 102.189 83.2094 102.369 81.7419L110.776 13.0462C110.956 11.5798 110.523 10.1795 109.679 9.10057C108.835 8.02161 107.579 7.26402 106.11 7.08314L53.9027 0.652055Z" stroke="#333333"/>
<g id="Group 16">
<path id="Fill 1_2" fill-rule="evenodd" clip-rule="evenodd" d="M118.099 28.401L110.894 86.9225C110.412 90.8367 106.832 93.6192 102.898 93.1374L50.1624 86.6798C46.2276 86.198 43.4284 82.6343 43.9103 78.7202L52.0097 12.9337C52.4916 9.01951 56.0722 6.23711 60.0069 6.71893L105.292 12.2643L118.099 28.401Z" fill="url(#paint2_linear)"/>
<path id="Fill 3_2" fill-rule="evenodd" clip-rule="evenodd" d="M103.315 36.7444L57.1562 31.0871C56.855 31.0502 56.6495 30.7032 56.6976 30.3119C56.7457 29.9206 57.0292 29.6335 57.3305 29.6704L103.489 35.3276C103.791 35.3646 103.996 35.7116 103.948 36.1029C103.9 36.4942 103.616 36.7813 103.315 36.7444Z" fill="white"/>
<path id="Fill 5_2" fill-rule="evenodd" clip-rule="evenodd" d="M102.445 43.8196L56.2861 38.1623C55.9848 38.1254 55.7793 37.7784 55.8275 37.3871C55.8756 36.9958 56.1591 36.7087 56.4604 36.7456L102.619 42.4028C102.92 42.4398 103.126 42.7868 103.078 43.1781C103.03 43.5694 102.746 43.8565 102.445 43.8196Z" fill="white"/>
<path id="Fill 7_2" fill-rule="evenodd" clip-rule="evenodd" d="M101.575 50.8947L55.416 45.2375C55.1147 45.2006 54.9092 44.8536 54.9574 44.4623C55.0055 44.071 55.289 43.7839 55.5903 43.8208L101.749 49.478C102.05 49.515 102.256 49.862 102.208 50.2533C102.159 50.6446 101.876 50.9317 101.575 50.8947Z" fill="white"/>
<path id="Fill 9_2" fill-rule="evenodd" clip-rule="evenodd" d="M80.9641 55.55L54.5398 52.3119C54.2417 52.2754 54.0391 51.9287 54.0872 51.5375C54.1354 51.1462 54.4159 50.8588 54.7141 50.8954L81.1384 54.1335C81.4365 54.17 81.6391 54.5166 81.591 54.9079C81.5428 55.2991 81.2623 55.5865 80.9641 55.55Z" fill="white"/>
</g>
<g id="Group 13_2">
<g id="Fill 11 Copy" opacity="0.2756" filter="url(#filter0_f)">
<path fill-rule="evenodd" clip-rule="evenodd" d="M104.529 13.0195L104.18 12.9766C104.094 12.966 104.015 13.0243 104.005 13.1072L102.512 25.2992C102.342 26.691 103.384 27.9647 104.84 28.144L117.496 29.7018C117.583 29.7124 117.661 29.6538 117.671 29.5711L117.732 29.0763L104.529 13.0195Z" fill="url(#paint3_linear)"/>
</g>
<mask id="mask1" mask-type="alpha" maskUnits="userSpaceOnUse" x="102" y="12" width="19" height="18">
<g id="mask 10">
<path id="Vector_2" d="M104.861 12.0784L120.336 14.2457L118.245 29.0743L102.77 26.907L104.861 12.0784Z" fill="white"/>
</g>
</mask>
<g mask="url(#mask1)">
<path id="Fill 11_2" fill-rule="evenodd" clip-rule="evenodd" d="M105.366 12.1494L105.016 12.1004C104.93 12.0882 104.85 12.1452 104.838 12.228L103.124 24.3908C102.929 25.7793 103.953 27.0707 105.411 27.2752L118.089 29.0523C118.176 29.0644 118.256 29.0072 118.268 28.9247L118.337 28.4311L105.366 12.1494Z" fill="url(#paint4_linear)"/>
</g>
</g>
</g>
<g id="xis">
<rect id="Rectangle_2" width="25.8964" height="26.3194" rx="8" transform="matrix(-0.994019 -0.109205 -0.109205 0.994019 117.189 61.0315)" fill="#FF6666"/>
<path id="Fill 1_3" fill-rule="evenodd" clip-rule="evenodd" d="M104.418 73.0517L108.108 77.6523C108.444 78.0714 108.377 78.6826 107.958 79.0177C107.749 79.1853 107.492 79.2527 107.245 79.2256C106.997 79.1984 106.761 79.0766 106.593 78.8677L102.903 74.267L98.3025 77.9569C98.0935 78.1245 97.836 78.1919 97.5888 78.1648C97.3416 78.1376 97.1048 78.0158 96.9372 77.8069C96.6011 77.3879 96.6683 76.7766 97.0873 76.4406L101.688 72.7517L97.998 68.1511C97.6618 67.733 97.729 67.1218 98.148 66.7858C98.567 66.4497 99.1773 66.5168 99.5133 66.9358L103.203 71.5364L107.804 67.8466C108.223 67.5115 108.833 67.5785 109.169 67.9966C109.505 68.4156 109.438 69.0268 109.019 69.3629L104.418 73.0517Z" fill="white"/>
</g>
<g id="xis1">
<rect id="Rectangle_3" width="75.087" height="76.3136" rx="8" transform="matrix(-0.999847 0.0174712 0.0174712 0.999847 104.11 8.9212)" fill="#FF6666"/>
<path id="Fill 1_4" fill-rule="evenodd" clip-rule="evenodd" d="M71.789 48.1799L84.0899 60.0583C85.2102 61.1402 85.2414 62.9228 84.1594 64.0403C83.6199 64.599 82.9038 64.8876 82.1829 64.9002C81.4619 64.9128 80.7362 64.6494 80.1775 64.1099L67.8766 52.2315L55.9982 64.5324C55.4587 65.0911 54.7426 65.3797 54.0217 65.3923C53.3007 65.4049 52.575 65.1415 52.0162 64.602C50.8959 63.5201 50.8647 61.7375 51.9466 60.6171L63.825 48.3191L51.5242 36.4407C50.4039 35.3617 50.3727 33.5791 51.4546 32.4587C52.5364 31.3384 54.3162 31.3073 55.4366 32.3892L67.7374 44.2675L79.6158 31.9667C80.6977 30.8491 82.4775 30.818 83.5978 31.8971C84.7181 32.9789 84.7493 34.7615 83.6674 35.8819L71.789 48.1799Z" fill="white"/>
</g>
</g>
<defs>
<filter id="filter0_f" x="100.494" y="10.9753" width="19.2382" height="20.7277" filterUnits="userSpaceOnUse" color-interpolation-filters="sRGB">
<feFlood flood-opacity="0" result="BackgroundImageFix"/>
<feBlend mode="normal" in="SourceGraphic" in2="BackgroundImageFix" result="shape"/>
<feGaussianBlur stdDeviation="1" result="effect1_foregroundBlur"/>
</filter>
<linearGradient id="paint0_linear" x1="62.5771" y1="72.6438" x2="33.9329" y2="94.0406" gradientUnits="userSpaceOnUse">
<stop stop-color="#B0C2F9"/>
<stop offset="0.587317" stop-color="#C3D2FF"/>
<stop offset="1" stop-color="#D6E0FF"/>
</linearGradient>
<linearGradient id="paint1_linear" x1="70.5054" y1="35.5463" x2="68.4979" y2="25.1869" gradientUnits="userSpaceOnUse">
<stop stop-color="#2854D8"/>
<stop offset="1" stop-color="#3366FF"/>
</linearGradient>
<linearGradient id="paint2_linear" x1="105.684" y1="16.977" x2="42.6032" y2="79.0874" gradientUnits="userSpaceOnUse">
<stop stop-color="#BDCEFF"/>
<stop offset="1" stop-color="#D6E0FF"/>
</linearGradient>
<linearGradient id="paint3_linear" x1="108.493" y1="33.4598" x2="109.989" y2="21.2352" gradientUnits="userSpaceOnUse">
<stop stop-color="#2854D8"/>
<stop offset="1" stop-color="#3366FF"/>
</linearGradient>
<linearGradient id="paint4_linear" x1="108.994" y1="32.6457" x2="110.703" y2="20.4571" gradientUnits="userSpaceOnUse">
<stop stop-color="#2854D8"/>
<stop offset="1" stop-color="#3366FF"/>
</linearGradient>
</defs>
</svg>
